<svg width="12" height="12" viewBox="0 0 12 12" fill="none" xmlns="http://www.w3.org/2000/svg">
<path d="M5.97511 0.437831C6.19101 0.326825 6.43613 0.285669 6.6765 0.320061C6.91687 0.354454 7.14061 0.462694 7.31672 0.62979C7.49478 0.802492 7.61708 1.02416 7.667 1.26746L7.95031 2.86697C8.02429 3.26831 8.19062 3.64697 8.43616 3.97307C8.68171 4.29916 8.99974 4.56374 9.36514 4.74593L10.8452 5.46513C11.0628 5.58029 11.2388 5.76078 11.3483 5.98115C11.4578 6.20153 11.4954 6.45068 11.4558 6.69351C11.4161 6.93634 11.3012 7.1606 11.1273 7.33469C10.9533 7.50878 10.7291 7.62393 10.4862 7.66391L8.88335 7.94757C8.4816 8.02126 8.10252 8.18733 7.77607 8.43265C7.44962 8.67796 7.18475 8.99581 7.00239 9.36106L6.28125 10.8365C6.1681 11.0528 5.99028 11.2286 5.77252 11.3393C5.55475 11.4499 5.30788 11.49 5.06623 11.4539C4.82459 11.4179 4.60019 11.3074 4.42427 11.1379C4.24834 10.9685 4.12962 10.7484 4.08464 10.5084L3.79441 8.87727C3.71896 8.48626 3.55573 8.11744 3.31702 7.79858C3.07831 7.47972 2.77034 7.21912 2.41628 7.03641L0.936858 6.32071C0.720432 6.20744 0.544651 6.02964 0.433921 5.812C0.323191 5.59436 0.283004 5.34767 0.318942 5.10619C0.354879 4.86471 0.465157 4.64042 0.634464 4.46445C0.803772 4.28848 1.02371 4.16957 1.26374 4.12422L2.86498 3.84375C3.26872 3.77004 3.6495 3.60264 3.97669 3.35504C4.30387 3.10744 4.56833 2.78655 4.74879 2.41817L5.4704 0.939432C5.58259 0.72346 5.75951 0.548393 5.97511 0.437831Z" fill="#9547A5"/>
</svg>
